<svg version="1.1" id="Layer_1" xmlns="http://www.w3.org/2000/svg" xmlns:xlink="http://www.w3.org/1999/xlink" x="0px" y="0px"
	 width="100%" viewBox="0 0 160 159" enable-background="new 0 0 160 159" xml:space="preserve">
<path fill="#FBFBFB" opacity="1.000000" stroke="none" 
	d="
M1.000000,62.000000 
	C1.000000,41.333340 1.000000,21.166679 1.000000,1.000014 
	C54.333313,1.000009 107.666626,1.000009 160.999954,1.000005 
	C160.999969,53.999966 160.999969,106.999931 160.999985,159.999908 
	C107.666718,159.999939 54.333439,159.999939 1.000080,159.999969 
	C1.000000,127.500000 1.000000,95.000000 1.000000,62.000000 
M54.718090,125.858978 
	C81.982033,140.593369 113.470261,132.586685 128.807419,107.019936 
	C142.731430,83.808861 136.707962,50.962524 115.801636,37.188236 
	C112.632141,41.156059 109.449120,45.140816 106.285805,49.100899 
	C123.746948,64.619293 123.290390,85.822769 114.928215,99.142487 
	C105.074944,114.837296 86.575653,121.276588 69.277740,115.129890 
	C52.896839,109.309044 42.307434,92.446228 44.136936,75.095108 
	C46.256161,54.996178 60.366936,43.689251 87.513794,40.596863 
	C88.109200,35.644043 88.714600,30.608034 89.317337,25.594187 
	C64.656525,21.604258 40.047012,36.459026 31.233992,60.274620 
	C22.305952,84.401024 32.069695,112.238846 54.718090,125.858978 
M133.705521,47.863571 
	C139.508713,57.412853 142.140854,67.925255 142.636597,78.769608 
	C148.195923,78.769608 153.241821,78.769608 158.258881,78.769608 
	C158.480728,46.581551 137.697998,19.213747 111.037064,8.713020 
	C80.698624,-3.236133 48.940086,3.858608 26.302444,27.407085 
	C7.800426,46.653545 0.791433,80.396065 10.657524,103.178337 
	C15.446293,101.470787 20.241961,99.760780 24.987982,98.068481 
	C14.443686,58.071518 38.085461,30.725952 63.159157,21.923151 
	C88.193794,13.134065 118.260468,23.710032 133.705521,47.863571 
M62.573597,106.024895 
	C63.544071,106.665604 64.485619,107.356087 65.489403,107.939484 
	C78.623245,115.572929 95.276718,113.440811 105.966751,102.772766 
	C116.775085,91.986664 118.828827,75.001175 110.911995,61.873055 
	C103.127670,48.964676 87.316811,42.654972 72.847794,47.183838 
	C60.450726,51.064178 52.452747,59.501244 49.792160,72.346992 
	C46.998650,85.834503 51.528538,96.865799 62.573597,106.024895 
M115.074562,129.619598 
	C91.288292,143.435913 68.059662,142.652695 45.105335,126.717278 
	C41.922550,130.685638 38.742176,134.651001 35.569374,138.606918 
	C70.165565,167.978119 128.113907,157.478561 149.514084,114.343781 
	C145.034698,111.960159 140.549820,109.573601 135.912598,107.105980 
	C130.511734,116.039871 124.274704,123.724266 115.074562,129.619598 
z"/>
<path fill="#0E0E0E" opacity="1.000000" stroke="none" 
	d="
M54.408180,125.661438 
	C32.069695,112.238846 22.305952,84.401024 31.233992,60.274620 
	C40.047012,36.459026 64.656525,21.604258 89.317337,25.594187 
	C88.714600,30.608034 88.109200,35.644043 87.513794,40.596863 
	C60.366936,43.689251 46.256161,54.996178 44.136936,75.095108 
	C42.307434,92.446228 52.896839,109.309044 69.277740,115.129890 
	C86.575653,121.276588 105.074944,114.837296 114.928215,99.142487 
	C123.290390,85.822769 123.746948,64.619293 106.285805,49.100899 
	C109.449120,45.140816 112.632141,41.156059 115.801636,37.188236 
	C136.707962,50.962524 142.731430,83.808861 128.807419,107.019936 
	C113.470261,132.586685 81.982033,140.593369 54.408180,125.661438 
z"/>
<path fill="#0E0E0E" opacity="1.000000" stroke="none" 
	d="
M133.487961,47.569550 
	C118.260468,23.710032 88.193794,13.134065 63.159157,21.923151 
	C38.085461,30.725952 14.443686,58.071518 24.987982,98.068481 
	C20.241961,99.760780 15.446293,101.470787 10.657524,103.178337 
	C0.791433,80.396065 7.800426,46.653545 26.302444,27.407085 
	C48.940086,3.858608 80.698624,-3.236133 111.037064,8.713020 
	C137.697998,19.213747 158.480728,46.581551 158.258881,78.769608 
	C153.241821,78.769608 148.195923,78.769608 142.636597,78.769608 
	C142.140854,67.925255 139.508713,57.412853 133.487961,47.569550 
z"/>
<path fill="#0C0C0C" opacity="1.000000" stroke="none" 
	d="
M62.273590,105.822540 
	C51.528538,96.865799 46.998650,85.834503 49.792160,72.346992 
	C52.452747,59.501244 60.450726,51.064178 72.847794,47.183838 
	C87.316811,42.654972 103.127670,48.964676 110.911995,61.873055 
	C118.828827,75.001175 116.775085,91.986664 105.966751,102.772766 
	C95.276718,113.440811 78.623245,115.572929 65.489403,107.939484 
	C64.485619,107.356087 63.544071,106.665604 62.273590,105.822540 
z"/>
<path fill="#0E0E0E" opacity="1.000000" stroke="none" 
	d="
M115.373474,129.410797 
	C124.274704,123.724266 130.511734,116.039871 135.912598,107.105980 
	C140.549820,109.573601 145.034698,111.960159 149.514084,114.343781 
	C128.113907,157.478561 70.165565,167.978119 35.569374,138.606918 
	C38.742176,134.651001 41.922550,130.685638 45.105335,126.717278 
	C68.059662,142.652695 91.288292,143.435913 115.373474,129.410797 
z"/>
</svg>